<svg width="112" height="113" viewBox="0 0 112 113" fill="none" xmlns="http://www.w3.org/2000/svg">
<g filter="url(#filter0_d_117_273)">
<path d="M9.79541 55.9624C9.79541 49.1811 11.1054 42.9008 13.7255 37.1213C16.3455 31.3418 19.9288 26.3329 24.4753 22.0947C29.0218 17.8564 34.2618 14.6391 40.1954 12.4429C46.129 10.2467 52.4865 9.37981 59.2677 9.84217C60.5777 9.99629 61.618 10.555 62.3886 11.5182C63.1592 12.4815 63.4289 13.6181 63.1977 14.9281C62.9666 16.2381 62.3308 17.2784 61.2905 18.049C60.2502 18.8196 59.0751 19.1664 57.765 19.0893C52.4479 18.8582 47.4583 19.6095 42.7962 21.3433C38.1341 23.0772 34.0307 25.6394 30.4859 29.03C26.9412 32.4206 24.1478 36.4085 22.1057 40.9935C20.0636 45.5786 19.0426 50.5682 19.0426 55.9624C19.0426 66.2884 22.6258 75.0346 29.7924 82.2012C36.9589 89.3677 45.7052 92.951 56.0312 92.951C61.3483 92.951 66.2994 91.93 70.8844 89.8879C75.4695 87.8458 79.4573 85.0524 82.848 81.5076C86.3927 77.8088 89.0127 73.609 90.708 68.9084C92.4034 64.2078 93.1354 59.3145 92.9042 54.2285C92.8272 52.9185 93.174 51.7434 93.9445 50.7031C94.7151 49.6627 95.7554 49.027 97.0655 48.7958C98.3755 48.5646 99.5121 48.8344 100.475 49.6049C101.439 50.3755 101.997 51.4159 102.151 52.7259C102.614 59.4301 101.747 65.7489 99.5506 71.6825C97.3544 77.6161 94.1757 82.8562 90.0145 87.4027C85.6221 92.1804 80.4976 95.8407 74.6411 98.3837C68.7846 100.927 62.5813 102.198 56.0312 102.198C49.6352 102.198 43.6246 100.984 37.9992 98.5571C32.3739 96.1297 27.4806 92.8354 23.3194 88.6742C19.1582 84.513 15.8639 79.6197 13.4365 73.9943C11.0091 68.369 9.79541 62.3583 9.79541 55.9624ZM83.7727 42.0916C79.9197 42.0916 76.6447 40.7431 73.9476 38.046C71.2505 35.3489 69.9019 32.0739 69.9019 28.2209C69.9019 24.3679 71.2505 21.0929 73.9476 18.3958C76.6447 15.6987 79.9197 14.3502 83.7727 14.3502C87.6257 14.3502 90.9007 15.6987 93.5978 18.3958C96.2949 21.0929 97.6434 24.3679 97.6434 28.2209C97.6434 32.0739 96.2949 35.3489 93.5978 38.046C90.9007 40.7431 87.6257 42.0916 83.7727 42.0916Z" fill="url(#paint0_linear_117_273)"/>
</g>
<defs>
<filter id="filter0_d_117_273" x="9.29541" y="9.72156" width="97.4766" height="102.977" filterUnits="userSpaceOnUse" color-interpolation-filters="sRGB">
<feFlood flood-opacity="0" result="BackgroundImageFix"/>
<feColorMatrix in="SourceAlpha" type="matrix" values="0 0 0 0 0 0 0 0 0 0 0 0 0 0 0 0 0 0 127 0" result="hardAlpha"/>
<feOffset dx="2" dy="8"/>
<feGaussianBlur stdDeviation="1.25"/>
<feComposite in2="hardAlpha" operator="out"/>
<feColorMatrix type="matrix" values="0 0 0 0 0 0 0 0 0 0 0 0 0 0 0 0 0 0 0.25 0"/>
<feBlend mode="normal" in2="BackgroundImageFix" result="effect1_dropShadow_117_273"/>
<feBlend mode="normal" in="SourceGraphic" in2="effect1_dropShadow_117_273" result="shape"/>
</filter>
<linearGradient id="paint0_linear_117_273" x1="56.0337" y1="9.72156" x2="56.0337" y2="102.198" gradientUnits="userSpaceOnUse">
<stop stop-color="#C1B5FF"/>
<stop offset="0.769231" stop-color="#61577D"/>
</linearGradient>
</defs>
</svg>
