<svg width="112" height="113" viewBox="0 0 112 113" fill="none" xmlns="http://www.w3.org/2000/svg">
<g filter="url(#filter0_d_36_37)">
<path d="M9.79553 55.9623C9.79553 49.1811 11.1055 42.9007 13.7256 37.1212C16.3456 31.3418 19.9289 26.3329 24.4754 22.0946C29.0219 17.8563 34.262 14.6391 40.1956 12.4429C46.1292 10.2467 52.4866 9.37975 59.2678 9.84211C60.5778 9.99623 61.6181 10.5549 62.3887 11.5182C63.1593 12.4814 63.429 13.618 63.1979 14.928C62.9667 16.2381 62.3309 17.2784 61.2906 18.049C60.2503 18.8196 59.0752 19.1663 57.7652 19.0893C52.448 18.8581 47.4584 19.6094 42.7963 21.3433C38.1342 23.0771 34.0308 25.6393 30.486 29.03C26.9413 32.4206 24.1479 36.4084 22.1058 40.9935C20.0637 45.5785 19.0427 50.5681 19.0427 55.9623C19.0427 66.2883 22.626 75.0346 29.7925 82.2011C36.9591 89.3677 45.7053 92.9509 56.0313 92.9509C61.3484 92.9509 66.2995 91.9299 70.8846 89.8878C75.4696 87.8457 79.4575 85.0523 82.8481 81.5076C86.3928 77.8087 89.0128 73.609 90.7082 68.9083C92.4035 64.2077 93.1355 59.3144 92.9044 54.2285C92.8273 52.9185 93.1741 51.7433 93.9447 50.703C94.7153 49.6627 95.7556 49.0269 97.0656 48.7958C98.3756 48.5646 99.5122 48.8343 100.475 49.6049C101.439 50.3755 101.997 51.4158 102.152 52.7258C102.614 59.43 101.747 65.7489 99.5508 71.6825C97.3546 77.6161 94.1758 82.8561 90.0146 87.4026C85.6222 92.1803 80.4978 95.8407 74.6412 98.3836C68.7847 100.927 62.5814 102.198 56.0313 102.198C49.6354 102.198 43.6247 100.984 37.9994 98.557C32.374 96.1296 27.4807 92.8354 23.3195 88.6741C19.1583 84.5129 15.864 79.6196 13.4366 73.9943C11.0092 68.3689 9.79553 62.3583 9.79553 55.9623ZM83.7728 42.0916C79.9198 42.0916 76.6448 40.743 73.9477 38.0459C71.2506 35.3489 69.9021 32.0738 69.9021 28.2208C69.9021 24.3679 71.2506 21.0928 73.9477 18.3957C76.6448 15.6986 79.9198 14.3501 83.7728 14.3501C87.6258 14.3501 90.9008 15.6986 93.5979 18.3957C96.295 21.0928 97.6435 24.3679 97.6435 28.2208C97.6435 32.0738 96.295 35.3489 93.5979 38.0459C90.9008 40.743 87.6258 42.0916 83.7728 42.0916Z" fill="url(#paint0_linear_36_37)"/>
</g>
<defs>
<filter id="filter0_d_36_37" x="9.29553" y="9.7215" width="97.4766" height="102.977" filterUnits="userSpaceOnUse" color-interpolation-filters="sRGB">
<feFlood flood-opacity="0" result="BackgroundImageFix"/>
<feColorMatrix in="SourceAlpha" type="matrix" values="0 0 0 0 0 0 0 0 0 0 0 0 0 0 0 0 0 0 127 0" result="hardAlpha"/>
<feOffset dx="2" dy="8"/>
<feGaussianBlur stdDeviation="1.25"/>
<feComposite in2="hardAlpha" operator="out"/>
<feColorMatrix type="matrix" values="0 0 0 0 0 0 0 0 0 0 0 0 0 0 0 0 0 0 0.25 0"/>
<feBlend mode="normal" in2="BackgroundImageFix" result="effect1_dropShadow_36_37"/>
<feBlend mode="normal" in="SourceGraphic" in2="effect1_dropShadow_36_37" result="shape"/>
</filter>
<linearGradient id="paint0_linear_36_37" x1="56.0338" y1="9.7215" x2="56.0338" y2="102.198" gradientUnits="userSpaceOnUse">
<stop stop-color="#85A5CD"/>
<stop offset="0.769231" stop-color="#6B8CB4"/>
</linearGradient>
</defs>
</svg>
