<svg width="651" height="651" viewBox="0 0 651 651" fill="none" xmlns="http://www.w3.org/2000/svg">
<circle cx="325.5" cy="325.5" r="325.5" fill="url(#paint0_linear_168_13)"/>
<circle cx="325.5" cy="325.5" r="325.5" fill="black" fill-opacity="0.2"/>
<g clip-path="url(#clip0_168_13)">
<path d="M244.109 414.108C259.772 367.122 223.37 305.678 212.781 304.473C197.117 320.135 197.117 320.135 181.453 335.798C165.789 320.135 165.789 320.135 150.125 304.473C141.552 310.774 103.133 367.122 118.797 417.209C78.9457 390.895 9.25355 401.673 4.83535 411.371C14.8922 431.106 14.8922 431.106 24.949 450.842C5.21134 460.897 5.21134 460.897 -14.5264 470.953C-11.1824 481.053 31.6716 533.454 81.2037 539.343C40.9102 574.414 33.1108 636.343 40.9693 643.541C62.8487 640.076 62.8486 640.076 84.728 636.611C88.1934 658.488 88.1935 658.488 91.6588 680.364C102.299 680.306 163.903 646.727 181.453 608.256C199.003 664.223 261.972 684.99 271.247 679.742C274.712 657.865 274.712 657.865 278.178 635.988C300.057 639.453 300.057 639.453 321.649 642.307C324.593 631.56 323.832 565.912 289.804 529.711C345.602 522.692 379.558 480.322 377.432 469.88C357.694 459.824 357.694 459.824 337.957 449.768C348.013 430.033 348.013 430.033 358.07 410.297C349.428 404.092 283.96 384.97 244.109 414.385" fill="url(#paint1_linear_168_13)"/>
</g>
<defs>
<linearGradient id="paint0_linear_168_13" x1="325.5" y1="0" x2="325.5" y2="651" gradientUnits="userSpaceOnUse">
<stop offset="0.0817308"/>
<stop offset="1" stop-color="#362D53"/>
</linearGradient>
<linearGradient id="paint1_linear_168_13" x1="181.5" y1="304.473" x2="181.5" y2="680.527" gradientUnits="userSpaceOnUse">
<stop stop-color="#352C51"/>
<stop offset="1" stop-color="#09080F"/>
</linearGradient>
<clipPath id="clip0_168_13">
<rect width="651" height="651" rx="325.5" fill="white"/>
</clipPath>
</defs>
</svg>
